<svg width="64" height="84" viewBox="0 0 64 84" fill="none" xmlns="http://www.w3.org/2000/svg">
<path d="M58.595 8.25716C59.589 9.06806 60.2926 10.1477 60.5115 11.4173C60.6537 12.8349 60.4814 14.1943 59.5925 15.3531C58.3284 16.7301 57.0027 18.0455 55.6789 19.3648C55.4176 19.6257 55.1564 19.8867 54.8953 20.1477C54.2127 20.8296 53.5297 21.5111 52.8465 22.1924C52.1475 22.8897 51.449 23.5875 50.7504 24.2853C49.3833 25.6507 48.0156 27.0155 46.6476 28.3801C46.7722 28.354 46.8967 28.3279 47.025 28.3009C48.4905 28.0201 49.9147 28.1117 51.2145 28.8694C52.3521 29.6836 53.1146 30.607 53.498 31.9684C53.6534 33.6111 53.5823 34.9457 52.548 36.2613C52.2748 36.5794 51.9958 36.8867 51.7039 37.1877C51.8889 37.1338 52.0739 37.08 52.2645 37.0246C53.731 36.6663 55.1342 36.8113 56.4664 37.5496C57.6146 38.3369 58.3516 39.4379 58.7173 40.7759C58.8774 42.3633 58.7638 43.6369 57.7674 44.9064C57.494 45.2241 57.2149 45.5314 56.9232 45.8322C57.0201 45.8067 57.117 45.7813 57.2169 45.7551C59.0102 45.3339 60.4027 45.5231 61.9794 46.4846C63.038 47.1668 63.6053 48.2277 63.9366 49.4204C64.0806 50.8334 64.0247 52.1048 63.2842 53.3349C61.6357 55.3551 59.6724 57.1428 57.833 58.9881C57.656 59.1658 57.479 59.3435 57.3019 59.5212C56.4702 60.356 55.6382 61.1904 54.8056 62.0243C53.8526 62.9789 52.9009 63.9349 51.9504 64.892C51.2098 65.6376 50.4678 66.3819 49.725 67.1253C49.2839 67.5668 48.8433 68.0087 48.4042 68.4521C45.243 71.6416 42.3379 73.8761 38.1197 75.4718C33.1808 77.3555 29.5892 79.3559 26.2597 83.5091C25.6084 83.2473 25.1713 82.7916 24.6867 82.3016C24.5956 82.2107 24.5044 82.1198 24.4105 82.0262C24.1052 81.7215 23.8011 81.4155 23.497 81.1096C23.2784 80.891 23.0598 80.6724 22.8411 80.4539C22.2473 79.8602 21.6545 79.2655 21.0619 78.6706C20.4425 78.0492 19.8222 77.4287 19.202 76.8081C18.0276 75.6327 16.854 74.4564 15.6808 73.2799C14.345 71.9405 13.0084 70.6021 11.6716 69.2637C8.92179 66.5104 6.1731 63.756 3.42518 61.0008C3.57972 60.8187 3.73452 60.6367 3.88944 60.4549C3.97562 60.3536 4.0618 60.2522 4.15059 60.1478C4.47728 59.7753 4.82964 59.4358 5.18874 59.0945C7.95713 56.3344 9.64691 52.8133 9.67409 48.8802C9.67409 45.0355 8.26891 41.821 5.65766 39.0022C5.57312 38.9108 5.48858 38.8194 5.40148 38.7253C4.34984 37.5967 3.2555 36.511 2.16112 35.4241C1.94998 35.2138 1.73888 35.0034 1.52782 34.793C1.01899 34.286 0.509646 33.7794 0 33.2732C0.86865 31.3977 2.90128 30.0231 4.73001 29.1956C6.94432 28.4262 9.24997 28.8024 11.323 29.7868C12.8306 30.5909 14.0834 31.625 15.3317 32.7839C15.4779 32.9184 15.624 33.053 15.7745 33.1916C17.2565 34.615 18.4614 36.2731 19.6642 37.9318C19.7323 38.025 19.8004 38.1182 19.8706 38.2142C20.2335 38.7227 20.5105 39.2062 20.7142 39.7973C21.6202 39.0243 22.4785 38.2179 23.3167 37.3721C23.4405 37.2478 23.5643 37.1235 23.6919 36.9955C24.1037 36.582 24.5149 36.168 24.9261 35.7541C25.2225 35.4563 25.5189 35.1586 25.8154 34.8609C26.37 34.3039 26.9245 33.7468 27.4787 33.1895C28.5679 32.0945 29.658 31.0004 30.7485 29.9067C30.9206 29.7342 31.0927 29.5616 31.2648 29.389C31.5255 29.1275 31.7862 28.866 32.0469 28.6046C33.0278 27.6208 34.0086 26.6368 34.9893 25.6528C35.0789 25.5629 35.1684 25.473 35.2607 25.3805C36.7128 23.9233 38.1637 22.465 39.6142 21.0063C41.106 19.5062 42.5994 18.0076 44.0942 16.5103C45.0147 15.5881 45.9341 14.6647 46.8518 13.7396C47.5554 13.0306 48.2612 12.3237 48.9677 11.6176C49.2566 11.3283 49.5447 11.0383 49.832 10.7475C50.2252 10.3499 50.6209 9.9549 51.0172 9.56043C51.1296 9.44554 51.242 9.33065 51.3578 9.21229C53.3451 7.25297 56.1838 6.60374 58.595 8.25716Z" fill="#084908"/>
<path d="M38.9965 3.13092C39.762 3.45349 40.3314 4.2023 40.9084 4.78107C41.0547 4.92267 41.2009 5.06427 41.3515 5.21017C41.4889 5.34715 41.6263 5.48413 41.7679 5.62526C41.8944 5.75063 42.021 5.87601 42.1513 6.00518C42.4069 6.36113 42.4069 6.36113 42.3809 6.66659C42.203 7.11704 41.9555 7.36059 41.6115 7.70148C41.4106 7.90223 41.4106 7.90223 41.2058 8.10704C41.0603 8.24995 40.9149 8.39286 40.7651 8.5401C40.6169 8.6876 40.4687 8.83511 40.316 8.98709C39.9226 9.37858 39.5278 9.76859 39.1327 10.1583C38.7295 10.5565 38.3277 10.9561 37.9257 11.3555C37.1374 12.1387 36.3475 12.9202 35.5566 13.7008C34.9288 13.1707 34.3115 12.6396 33.7325 12.0557C33.5614 11.8839 33.5614 11.8839 33.3869 11.7085C33.2145 11.5341 33.2145 11.5341 33.0387 11.3562C32.9194 11.2361 32.8 11.1161 32.6771 10.9924C32.3861 10.6995 32.0955 10.4062 31.8052 10.1125C32.9088 8.79398 34.1198 7.58656 35.3305 6.36703C35.605 6.08979 35.8786 5.81167 36.1514 5.53271C36.5463 5.12898 36.9437 4.72795 37.3418 4.32743C37.4638 4.20174 37.5858 4.07604 37.7115 3.94653C37.8259 3.83265 37.9402 3.71877 38.058 3.60143C38.1579 3.5002 38.2578 3.39897 38.3608 3.29468C38.6556 3.09906 38.6556 3.09906 38.9965 3.13092Z" fill="#084908"/>
<path d="M10.1124 3.09912C10.6605 3.33704 11.018 3.63878 11.4378 4.06126C11.5684 4.19185 11.6989 4.32244 11.8335 4.457C11.9728 4.59802 12.1122 4.73904 12.2557 4.88434C12.3996 5.02869 12.5435 5.17304 12.6917 5.32176C13.0731 5.70462 13.4537 6.08817 13.834 6.47207C14.2226 6.86407 14.6122 7.25513 15.0017 7.64627C15.765 8.41315 16.5274 9.18096 17.289 9.94947C17.0185 10.5242 16.7073 10.8953 16.253 11.3435C16.1143 11.4812 15.9755 11.6189 15.8325 11.7608C15.6875 11.9032 15.5424 12.0455 15.3929 12.1922C15.2466 12.337 15.1002 12.4819 14.9495 12.6311C14.5883 12.9885 14.2264 13.345 13.8638 13.7009C12.9579 12.9465 12.121 12.1426 11.2905 11.3065C11.1581 11.174 11.0258 11.0414 10.8895 10.9048C10.4704 10.4848 10.0518 10.0643 9.63332 9.64366C9.34782 9.35734 9.06228 9.07106 8.7767 8.78481C8.07979 8.08611 7.38334 7.38694 6.68726 6.6874C7.20658 6.07304 7.72486 5.46575 8.29663 4.899C8.40386 4.79229 8.51109 4.68559 8.62156 4.57566C8.73005 4.46853 8.83854 4.36141 8.95032 4.25104C9.06259 4.1395 9.17487 4.02796 9.29054 3.91305C9.56413 3.64136 9.8381 3.37006 10.1124 3.09912Z" fill="#084908"/>
<path d="M22.019 0C23.6875 0 25.3561 0 27.0752 0C27.0752 3.28328 27.0752 6.56655 27.0752 9.94932C25.4066 9.94932 23.7381 9.94932 22.019 9.94932C22.019 6.66605 22.019 3.38277 22.019 0Z" fill="#084908"/>
</svg>
