<svg width="64" height="68" viewBox="0 0 64 68" fill="none" xmlns="http://www.w3.org/2000/svg">
<path fill-rule="evenodd" clip-rule="evenodd" d="M32.0696 0C23.6303 0 15.942 2.78757 11.3926 5.06508C10.9816 5.27059 10.5986 5.47237 10.2417 5.66668C9.53549 6.05156 8.93388 6.41028 8.45558 6.72603L13.6309 14.3451L16.0672 15.3148C25.5883 20.1183 38.3565 20.1183 47.8795 15.3148L50.6446 13.8799L55.5378 6.72603C54.5243 6.06474 53.4703 5.46757 52.3822 4.93803C47.8552 2.68481 40.3501 0 32.0714 0M20.0356 8.62427C18.2029 8.28135 16.3929 7.82713 14.6155 7.26411C18.8772 5.37148 25.2277 3.36302 32.0714 3.36302C36.8114 3.36302 41.2936 4.32708 45.0004 5.54898C40.6565 6.15992 36.0211 7.19685 31.6043 8.47293C28.1292 9.4781 24.0675 9.36974 20.0356 8.62427ZM49.8543 18.0856L49.3947 18.3172C38.9208 23.6009 25.0278 23.6009 14.5539 18.3172L14.1185 18.0968C-1.61852 35.3621 -13.632 67.2547 32.0696 67.2547C77.7711 67.2547 65.4662 34.7698 49.8543 18.0856ZM30.1284 33.6302C29.1373 33.6302 28.1869 34.0238 27.4861 34.7246C26.7854 35.4254 26.3917 36.3758 26.3917 37.3668C26.3917 38.3579 26.7854 39.3083 27.4861 40.0091C28.1869 40.7098 29.1373 41.1035 30.1284 41.1035V33.6302ZM33.865 29.8935V28.0251H30.1284V29.8935C28.1463 29.8935 26.2454 30.6808 24.8439 32.0824C23.4424 33.4839 22.655 35.3848 22.655 37.3668C22.655 39.3489 23.4424 41.2498 24.8439 42.6513C26.2454 44.0528 28.1463 44.8402 30.1284 44.8402V52.3136C28.5029 52.3136 27.1185 51.2766 26.6028 49.8231C26.5263 49.5853 26.4029 49.3652 26.2398 49.1759C26.0768 48.9867 25.8775 48.832 25.6536 48.7211C25.4298 48.6102 25.1859 48.5453 24.9366 48.5303C24.6872 48.5153 24.4374 48.5504 24.2018 48.6336C23.9663 48.7169 23.7498 48.8465 23.5652 49.0148C23.3806 49.1832 23.2317 49.3868 23.1272 49.6137C23.0227 49.8406 22.9648 50.0862 22.9568 50.3359C22.9489 50.5856 22.9911 50.8343 23.081 51.0674C23.5963 52.5247 24.5508 53.7863 25.8129 54.6787C27.075 55.5711 28.5826 56.0502 30.1284 56.0503V57.9186H33.865V56.0503C35.8471 56.0503 37.748 55.2629 39.1495 53.8614C40.551 52.4598 41.3384 50.559 41.3384 48.5769C41.3384 46.5948 40.551 44.694 39.1495 43.2924C37.748 41.8909 35.8471 41.1035 33.865 41.1035V33.6302C35.4905 33.6302 36.8749 34.6671 37.3906 36.1207C37.4671 36.3585 37.5905 36.5785 37.7536 36.7678C37.9166 36.9571 38.1159 37.1117 38.3398 37.2226C38.5636 37.3335 38.8075 37.3984 39.0568 37.4134C39.3062 37.4285 39.556 37.3933 39.7916 37.3101C40.0271 37.2269 40.2436 37.0973 40.4282 36.9289C40.6127 36.7606 40.7617 36.5569 40.8662 36.33C40.9707 36.1031 41.0286 35.8576 41.0366 35.6079C41.0445 35.3582 41.0023 35.1094 40.9124 34.8763C40.3971 33.4191 39.4426 32.1574 38.1805 31.2651C36.9184 30.3727 35.4107 29.8935 33.865 29.8935ZM33.865 44.8402V52.3136C34.8561 52.3136 35.8065 51.9199 36.5073 51.2191C37.208 50.5184 37.6017 49.5679 37.6017 48.5769C37.6017 47.5859 37.208 46.6354 36.5073 45.9347C35.8065 45.2339 34.8561 44.8402 33.865 44.8402Z" fill="#084908"/>
</svg>
